<?xml version="1.0" encoding="iso-8859-1"?>
<!-- Generator: Adobe Illustrator 18.1.1, SVG Export Plug-In . SVG Version: 6.00 Build 0)  -->
<svg version="1.1" id="Capa_1" xmlns="http://www.w3.org/2000/svg" xmlns:xlink="http://www.w3.org/1999/xlink" x="0px" y="0px"
	 viewBox="0 0 612.074 612.074" style="enable-background:new 0 0 612.074 612.074;" xml:space="preserve">
<g>
	<path d="M306.037,0.035C136.997,0.035,0,137.033,0,306.072s137.071,305.963,306.037,305.963
		c169.04,0.816,306.037-136.997,306.037-306.037S475.077,0.035,306.037,0.035z M306.037,583.182
		c-152.203,0-276.368-124.165-276.368-276.368S153.834,30.446,306.037,30.446s276.368,124.165,276.368,276.368
		S459.056,583.182,306.037,583.182z M397.418,181.833c-5.637,0-11.2,2.374-16.021,7.195l-82.554,76.917V209.87
		c0-26.406-16.021-28.037-20.843-28.037c-5.637,0-11.2,2.374-16.021,7.195l-100.133,93.754
		c-16.837,15.205-12.832,32.043-4.821,41.685c0,0.816,0.816,0.816,1.632,1.632l104.955,97.686c4.821,4.821,9.642,6.379,15.205,6.379
		c4.821,0,20.027-2.374,20.027-28.037v-56.891l84.112,78.549c4.821,4.821,9.642,6.379,15.205,6.379
		c4.821,0,20.027-2.374,20.027-28.037V209.87C418.186,184.281,402.165,181.833,397.418,181.833z M269.247,389.368l-88.117-83.37
		c0-0.816,0.816-0.816,1.632-1.632l86.485-80.848V389.368z M388.591,389.368l-88.933-83.37c0-0.816,0.816-0.816,1.632-1.632
		l87.301-80.848V389.368z"/>
</g>
<g>
</g>
<g>
</g>
<g>
</g>
<g>
</g>
<g>
</g>
<g>
</g>
<g>
</g>
<g>
</g>
<g>
</g>
<g>
</g>
<g>
</g>
<g>
</g>
<g>
</g>
<g>
</g>
<g>
</g>
</svg>