<?xml version="1.0" encoding="iso-8859-1"?><svg xmlns="http://www.w3.org/2000/svg" viewBox="0 0 612.074 612.074"><path d="M306.037.035C136.997.035 0 137.033 0 306.072s137.07 305.963 306.037 305.963c169.04.816 306.037-136.997 306.037-306.037S475.077.035 306.037.035zm0 583.147c-152.203 0-276.368-124.165-276.368-276.368S153.833 30.446 306.036 30.446 582.405 154.61 582.405 306.814s-123.35 276.368-276.368 276.368zm91.38-401.35c-5.636 0-11.2 2.375-16.02 7.196l-82.554 76.917V209.87c0-26.406-16.02-28.037-20.843-28.037-5.637 0-11.2 2.374-16.02 7.195l-100.134 93.754c-16.837 15.205-12.832 32.043-4.82 41.685 0 .816.815.816 1.63 1.632l104.956 97.685c4.82 4.82 9.642 6.38 15.205 6.38 4.82 0 20.027-2.375 20.027-28.038v-56.89l84.112 78.548c4.82 4.82 9.642 6.38 15.205 6.38 4.822 0 20.028-2.375 20.028-28.038V209.87c-.002-25.59-16.023-28.037-20.77-28.037zM269.248 389.37l-88.117-83.37c0-.816.816-.816 1.632-1.632l86.485-80.848v165.85zm119.344 0l-88.932-83.37c0-.816.816-.816 1.632-1.632l87.3-80.848v165.85z"/></svg>